<svg xmlns="http://www.w3.org/2000/svg" aria-hidden="true" style="position:absolute;width:0;height:0;overflow:hidden">
  <defs>
    <symbol id="icon-mobile-screen" viewBox="0 0 32 32">
      <path d="M22.649 2.286H9.35c-1.377 0-2.494 1.152-2.494 2.571v22.286c0 1.42 1.117 2.571 2.494 2.571h13.299c1.377 0 2.494-1.152 2.494-2.571V4.857c0-1.42-1.117-2.571-2.494-2.571zm-4.155 23.952c0 .52-.374.905-.831.905h-3.371c-.41 0-.784-.386-.784-.857s.374-.857.831-.857h3.325c.457 0 .831.386.831.809zm3.324-3.381H10.182V5.714h11.636v17.143z"/>
    </symbol>
    <symbol id="icon-twitter" viewBox="0 0 32 32">
      <path stroke-linecap="round" stroke-linejoin="round" stroke-width="2.667" d="M30.667 4.013a14.542 14.542 0 0 1-4.187 2.04 5.975 5.975 0 0 0-6.637-1.661A5.979 5.979 0 0 0 16 10.053v1.333a14.211 14.211 0 0 1-12-6.04s-5.333 12 6.667 17.333a15.519 15.519 0 0 1-9.333 2.667c12 6.667 26.667 0 26.667-15.333a5.966 5.966 0 0 0-.107-1.107 10.288 10.288 0 0 0 2.773-4.893z"/>
    </symbol>
    <symbol id="icon-facebook" viewBox="0 0 32 32">
      <path stroke-linecap="round" stroke-linejoin="round" stroke-width="2.667" d="M24 2.667h-4a6.67 6.67 0 0 0-6.667 6.667v4h-4v5.333h4v10.667h5.333V18.667h4l1.333-5.333h-5.333v-4A1.334 1.334 0 0 1 20 8h4V2.667z"/>
    </symbol>
    <symbol id="icon-instagram" viewBox="0 0 32 32">
      <path stroke-linecap="round" stroke-linejoin="round" stroke-width="2.667" d="M22.667 2.667H9.334a6.667 6.667 0 0 0-6.667 6.667v13.333a6.667 6.667 0 0 0 6.667 6.667h13.333a6.667 6.667 0 0 0 6.667-6.667V9.334a6.667 6.667 0 0 0-6.667-6.667z"/>
      <path stroke-linecap="round" stroke-linejoin="round" stroke-width="2.667" d="M21.333 15.16a5.338 5.338 0 0 1-6.123 6.049 5.334 5.334 0 1 1 6.124-6.048zM23.333 8.667h.013"/>
    </symbol>
    <symbol id="icon-star-1" viewBox="0 0 32 32">
      <path d="m8.17 19.52-2.293 9.778c-.071.296-.05.606.061.89s.306.529.56.701a1.552 1.552 0 0 0 1.731.01l8.38-5.501 8.38 5.501a1.559 1.559 0 0 0 1.76-.038c.254-.182.446-.437.549-.73s.112-.61.026-.908l-2.815-9.699 6.981-6.186a1.492 1.492 0 0 0 .427-1.613c-.097-.281-.275-.527-.512-.709s-.524-.291-.824-.315l-8.774-.688-3.797-8.276c-.121-.266-.318-.493-.567-.652a1.552 1.552 0 0 0-2.237.652l-3.797 8.276-8.774.687c-.295.023-.577.129-.812.306s-.414.416-.514.69a1.49 1.49 0 0 0 .373 1.6l6.485 6.224zm4.391-6.556c.275-.021.539-.115.764-.271s.404-.369.517-.617l2.769-6.033 2.769 6.033c.113.248.291.461.517.617s.489.25.764.271l6.113.477-5.034 4.462a1.504 1.504 0 0 0-.451 1.543l1.928 6.645-5.75-3.775a1.544 1.544 0 0 0-1.706 0l-6.008 3.945 1.616-6.889a1.5 1.5 0 0 0-.425-1.425l-4.676-4.489 6.295-.494z"/>
    </symbol>
    <symbol id="icon-star-2" viewBox="0 0 32 32">
      <path d="M30.432 11.938c-.092-.267-.261-.501-.487-.674s-.497-.277-.782-.3l-8.335-.652-3.607-7.862c-.115-.253-.302-.468-.538-.619a1.482 1.482 0 0 0-1.587-.001 1.442 1.442 0 0 0-.539.619l-3.607 7.864-8.335.652c-.28.022-.548.123-.771.29a1.435 1.435 0 0 0-.538 1.467c.063.27.203.516.404.709l6.16 5.913-2.178 9.289c-.066.281-.045.575.061.844s.291.501.532.665a1.477 1.477 0 0 0 1.644.012l7.961-5.226 7.961 5.226a1.486 1.486 0 0 0 1.672-.036c.242-.173.423-.416.521-.694a1.41 1.41 0 0 0 .025-.862l-2.674-9.214 6.632-5.877c.434-.386.594-.988.406-1.533z"/>
    </symbol>
    <symbol id="icon-tick" viewBox="0 0 32 32">
      <path d="M29.767 5.156a1.487 1.487 0 0 0-2.133 0L9.559 23.581l-6.948-7.082c-.589-.601-1.544-.601-2.134 0s-.589 1.574 0 2.175l8.014 8.17c.589.6 1.545.6 2.134 0L29.767 7.331a1.56 1.56 0 0 0 0-2.175z"/>
    </symbol>
    <symbol id="icon-untitled" viewBox="0 0 32 32">
      <path d="M26.487 2.689h1.614a.531.531 0 0 0 .538-.538V1.075a.53.53 0 0 0-.538-.538H3.361a.53.53 0 0 0-.538.538v1.076a.53.53 0 0 0 .538.538h1.613c0 6.219 2.975 10.723 6.269 12.908-3.294 2.185-6.269 6.689-6.269 12.908H3.361a.53.53 0 0 0-.538.538v1.076c0 .302.235.538.538.538h24.74a.531.531 0 0 0 .538-.538v-1.076a.531.531 0 0 0-.538-.538h-1.614c0-6.219-2.975-10.723-6.269-12.908 3.294-2.185 6.269-6.689 6.269-12.908zm-2.151 0c0 2.454-.555 4.622-1.429 6.454H8.554c-.874-1.832-1.429-4-1.429-6.454h17.21zm-.958 20.437H8.084c1.244-3.244 3.479-5.546 5.714-6.454h3.866c2.235.908 4.471 3.21 5.714 6.454z"/>
    </symbol>
    <symbol id="icon-heart" viewBox="0 0 32 32">
      <path d="M16 29.286c.286 0 .571-.107.786-.322L27.911 18.25C28.072 18.089 32 14.5 32 10.214c0-5.232-3.196-8.357-8.536-8.357-3.125 0-6.053 2.464-7.464 3.857-1.411-1.393-4.339-3.857-7.464-3.857C3.197 1.857 0 4.982 0 10.214c0 4.286 3.929 7.875 4.071 8l11.143 10.75c.214.214.5.322.786.322z"/>
    </symbol>
    <symbol id="icon-wavy" viewBox="0 0 32 32">
      <path d="m16.857 13.587 2.079.968 3.095-.921v-2.159c0-3.667-3.095-6.603-6.794-6.603-3.683 0-6.794 2.921-6.794 6.556v9.841c0 .905-.73 1.619-1.619 1.619s-1.619-.714-1.619-1.619V17.11H-.001v4.222a6.809 6.809 0 0 0 6.81 6.81c3.73 0 6.809-3 6.809-6.714v-9.714c0-.889.73-1.619 1.619-1.619s1.619.73 1.619 1.619v1.873zm8.413 3.524v4.365c0 .889-.73 1.603-1.619 1.603s-1.619-.714-1.619-1.603V17.19l-3.095.921-2.079-.968v4.254c0 3.73 3.064 6.746 6.81 6.746a6.809 6.809 0 0 0 6.81-6.81v-4.222h-5.206z"/>
    </symbol>
    <symbol id="icon-arrow" viewBox="0 0 32 32">
      <path d="M24.689 18.067 7.479.857a1.003 1.003 0 0 0-.756-.319c-.134 0-.286.034-.403.084a1.079 1.079 0 0 0-.672.992v25.277c0 .437.269.824.672.992.118.05.269.084.403.084.286 0 .555-.118.756-.319l5.244-5.244 3.21 7.597a1.08 1.08 0 0 0 1.412.571l2.975-1.261a1.08 1.08 0 0 0 .571-1.412l-3.378-8h6.42c.437 0 .824-.269.992-.672a1.038 1.038 0 0 0-.235-1.16z"/>
    </symbol>
    <symbol id="icon-Triangle-Copy-6" viewBox="0 0 28 32">
<path d="M26.088 12.891c2.441 1.354 2.441 4.864 0 6.218l-21.155 11.739c-2.37 1.315-5.281-0.399-5.281-3.109v-23.477c0-2.71 2.911-4.424 5.281-3.109l21.155 11.739z"></path>
</symbol>
  </defs>
</svg>
